<svg width="14" height="17" viewBox="0 0 11 11" fill="none" xmlns="http://www.w3.org/2000/svg">
<path
  d="M6 0.5C6 0.367392 5.94732 0.240215 5.85355 0.146447C5.75979 0.0526785 5.63261 0 5.5 0C5.36739 0 5.24021 0.0526785 5.14645 0.146447C5.05268 0.240215 5 0.367392 5 0.5V5H0.5C0.367392 5 0.240215 5.05268 0.146447 5.14645C0.0526785 5.24021 0 5.36739 0 5.5C0 5.63261 0.0526785 5.75979 0.146447 5.85355C0.240215 5.94732 0.367392 6 0.5 6H5V10.5C5 10.6326 5.05268 10.7598 5.14645 10.8536C5.24021 10.9473 5.36739 11 5.5 11C5.63261 11 5.75979 10.9473 5.85355 10.8536C5.94732 10.7598 6 10.6326 6 10.5V6H10.5C10.6326 6 10.7598 5.94732 10.8536 5.85355C10.9473 5.75979 11 5.63261 11 5.5C11 5.36739 10.9473 5.24021 10.8536 5.14645C10.7598 5.05268 10.6326 5 10.5 5H6V0.5Z"
  fill="#181818"/>
</svg>
