<svg width="14" height="17" viewBox="0 0 34 29" fill="none" xmlns="http://www.w3.org/2000/svg">
<path
  d="M32.2519 6.24727C31.7545 5.12584 31.0373 4.10961 30.1404 3.25547C29.2429 2.39878 28.1846 1.71798 27.0232 1.2501C25.819 0.763001 24.5273 0.513678 23.2232 0.5166C21.3937 0.5166 19.6088 1.00439 18.0576 1.92578C17.6865 2.14619 17.334 2.38828 17 2.65205C16.666 2.38828 16.3135 2.14619 15.9424 1.92578C14.3912 1.00439 12.6062 0.5166 10.7768 0.5166C9.45937 0.5166 8.18281 0.762304 6.97676 1.2501C5.81152 1.71982 4.76133 2.39551 3.85957 3.25547C2.96151 4.10864 2.24412 5.12511 1.74805 6.24727C1.23223 7.41436 0.96875 8.65371 0.96875 9.9292C0.96875 11.1324 1.22109 12.3862 1.72207 13.6617C2.14141 14.7276 2.74258 15.8333 3.51074 16.9498C4.72793 18.7167 6.40156 20.5595 8.47969 22.4275C11.9234 25.5241 15.3338 27.6632 15.4785 27.7499L16.358 28.2991C16.7477 28.5412 17.2486 28.5412 17.6383 28.2991L18.5178 27.7499C18.6625 27.6596 22.0691 25.5241 25.5166 22.4275C27.5947 20.5595 29.2684 18.7167 30.4855 16.9498C31.2537 15.8333 31.8586 14.7276 32.2742 13.6617C32.7752 12.3862 33.0275 11.1324 33.0275 9.9292C33.0312 8.65371 32.7678 7.41436 32.2519 6.24727V6.24727Z"
  fill="#FFFFFF"/>
</svg>
