<svg width="25" height="5" viewBox="0 0 37 7" fill="none" xmlns="http://www.w3.org/2000/svg">
<path fill-rule="evenodd" clip-rule="evenodd" d="M0.583332 3.5C0.583332 2.63805 0.960861 1.8114 1.63287 1.2019C2.30487 0.59241 3.21631 0.25 4.16667 0.25C5.11702 0.25 6.02846 0.59241 6.70046 1.2019C7.37247 1.8114 7.75 2.63805 7.75 3.5C7.75 4.36195 7.37247 5.1886 6.70046 5.79809C6.02846 6.40759 5.11702 6.75 4.16667 6.75C3.21631 6.75 2.30487 6.40759 1.63287 5.79809C0.960861 5.1886 0.583332 4.36195 0.583332 3.5Z" fill="#fffFFF"/>
<path fill-rule="evenodd" clip-rule="evenodd" d="M14.9167 3.5C14.9167 2.63805 15.2942 1.8114 15.9662 1.2019C16.6382 0.59241 17.5496 0.25 18.5 0.25C19.4504 0.25 20.3618 0.59241 21.0338 1.2019C21.7058 1.8114 22.0833 2.63805 22.0833 3.5C22.0833 4.36195 21.7058 5.1886 21.0338 5.79809C20.3618 6.40759 19.4504 6.75 18.5 6.75C17.5496 6.75 16.6382 6.40759 15.9662 5.79809C15.2942 5.1886 14.9167 4.36195 14.9167 3.5Z" fill="#fffFFF"/>
<path fill-rule="evenodd" clip-rule="evenodd" d="M29.25 3.5C29.25 2.63805 29.6275 1.8114 30.2995 1.2019C30.9715 0.59241 31.883 0.25 32.8333 0.25C33.7837 0.25 34.6951 0.59241 35.3671 1.2019C36.0391 1.8114 36.4167 2.63805 36.4167 3.5C36.4167 4.36195 36.0391 5.1886 35.3671 5.79809C34.6951 6.40759 33.7837 6.75 32.8333 6.75C31.883 6.75 30.9715 6.40759 30.2995 5.79809C29.6275 5.1886 29.25 4.36195 29.25 3.5Z" fill="#fffFFF"/>
</svg>
